<svg clip-rule="evenodd" fill-rule="evenodd" stroke-linejoin="round" stroke-miterlimit="2" viewBox="0 0 510 510" xmlns="http://www.w3.org/2000/svg" width="300" height="300" version="1.1" xmlns:xlink="http://www.w3.org/1999/xlink" xmlns:svgjs="http://svgjs.dev/svgjs"><g width="100%" height="100%" transform="matrix(1,0,0,1,0,0)"><path d="m174.343 453.873v41.127h-110.591v-41.127zm122.553-29.837v70.964h-106.553v-70.964zm-23.139-93.302c-.223 16.197-.159 33.974.998 39.982.752 3.901 1.533 7.073 2.375 9.772h-191.259v-365.488h220.299v45.702c0 8.836 7.164 16 16 16h45.702v72.429c-12.791.17-24.382 2.879-33.069 9.718-9.269 7.297-16.458 19.483-16.458 41.107 0 2.236.073 4.42.214 6.552-1.448-1.452-3.451-2.352-5.663-2.352h-78.098c-4.415 0-8 3.585-8 8 0 4.416 3.585 8 8 8h78.098c2.902 0 5.445-1.548 6.848-3.863 1.951 10.908 5.847 20.155 11.053 27.548-2.282.501-4.545 1.056-6.778 1.67-19.555 5.373-43.891 19.92-48.739 44.535h-40.482c-4.415 0-8 3.584-8 8 0 4.415 3.585 8 8 8h39.499c-.069 2.359-.151 5.326-.232 8.688h-39.267c-4.415 0-8 3.585-8 8 0 4.416 3.585 8 8 8zm-38.959-196.446h78.098c4.415 0 8-3.584 8-8 0-4.415-3.585-8-8-8h-78.098c-4.415 0-8 3.585-8 8 0 4.416 3.585 8 8 8zm-98.171-65.586h135.016c4.416 0 8-3.585 8-8 0-4.416-3.584-8-8-8h-135.016c-4.415 0-8 3.584-8 8 0 4.415 3.585 8 8 8zm98.171 176.143h50.84c4.415 0 8-3.584 8-8 0-4.415-3.585-8-8-8h-50.84c-4.415 0-8 3.585-8 8 0 4.416 3.585 8 8 8zm-91.946-136.29c-3.426 0-6.225 2.799-6.225 6.224v47.707c0 3.426 2.799 6.225 6.225 6.225h47.706c3.426 0 6.225-2.799 6.225-6.225v-47.707c0-3.425-2.799-6.224-6.225-6.224zm5.502 34.508c-3.125-3.119-3.13-8.189-.011-11.314s8.188-3.13 11.314-.011l4.177 4.169 9.329-11.537c2.776-3.433 7.818-3.967 11.251-1.19 3.433 2.776 3.967 7.817 1.19 11.251l-14.913 18.443c-1.426 1.763-3.532 2.838-5.795 2.959-2.264.12-4.473-.725-6.077-2.326zm-5.502 137.228c-3.426 0-6.225 2.82-6.225 6.246v47.706c0 3.426 2.799 6.225 6.225 6.225h47.706c3.426 0 6.225-2.799 6.225-6.225v-47.706c0-3.426-2.799-6.246-6.225-6.246zm5.502 34.529c-3.125-3.119-3.13-8.188-.011-11.314 3.119-3.125 8.188-3.13 11.314-.011l4.177 4.169 9.329-11.536c2.776-3.434 7.818-3.967 11.251-1.191s3.967 7.818 1.19 11.251l-14.913 18.444c-1.426 1.762-3.532 2.837-5.795 2.958-2.264.121-4.473-.725-6.077-2.326zm-5.502-120.397c-3.426 0-6.225 2.799-6.225 6.224v47.707c0 3.426 2.799 6.225 6.225 6.225h47.706c3.426 0 6.225-2.799 6.225-6.225v-47.707c0-3.425-2.799-6.224-6.225-6.224zm5.497 34.502c-3.122-3.122-3.122-8.191 0-11.313s8.191-3.122 11.313 0l4.178 4.177 9.323-11.53c2.776-3.433 7.818-3.966 11.251-1.19s3.967 7.817 1.19 11.251l-14.913 18.443c-1.426 1.764-3.534 2.84-5.799 2.959-2.266.12-4.475-.728-6.079-2.332zm86.449-69.948h50.84c4.415 0 8-3.585 8-8s-3.585-8-8-8h-50.84c-4.415 0-8 3.585-8 8s3.585 8 8 8zm87.372-143.977 45.702 45.702h-45.702zm-9.274 400.341c2.435.495 5.042.756 7.871.756h94.988c2.391 0 4.768-.289 7.093-.788v79.691h-109.952zm3.022-15.75c-3.011-.668-5.565-1.968-7.963-3.727-5.261-3.859-7.868-6.283-11.139-11.166-2.833-4.228-4.624-8.051-6.35-17.01-2.184-11.334 0-66.85 0-66.85-1.25-23.286 21.31-35.371 37.792-39.899 13.36-3.671 27.867-4.993 41.267-4.993 13.149 0 26.578 1.078 39.131 4.993 17.433 5.437 37.089 17.863 37.089 39.899 0 0 1.132 56.699 0 68.683-.901 9.534-4.161 14.814-5.516 16.657-1.538 2.092-6.097 6.871-10.019 9.102-2.706 1.539-5.856 3.157-9.215 4.071v-90.077c0-3.587-2.912-6.5-6.5-6.5-3.587 0-6.5 2.913-6.5 6.5v90.823h-79.077v-90.823c0-3.587-2.912-6.5-6.5-6.5-3.587 0-6.5 2.913-6.5 6.5zm52.539-150.976c-18.827 0-34.112-19.009-34.112-48.659 0-29.649 16.003-34.833 34.83-34.833 18.826 0 33.394 5.184 33.394 34.833 0 29.65-15.285 48.659-34.112 48.659z" fill="#e81c3d" fill-opacity="1" data-original-color="#000000ff" stroke="none" stroke-opacity="1"/></g></svg>