<?xml version="1.0" encoding="UTF-8"?>
<svg id="Layer_1" data-name="Layer 1" xmlns="http://www.w3.org/2000/svg" xmlns:xlink="http://www.w3.org/1999/xlink" viewBox="0 0 98.15 97.97">
  <defs>
    <style>
      .cls-1 {
        fill: url(#linear-gradient-2);
      }

      .cls-2 {
        fill: #f48220;
      }

      .cls-3 {
        fill: url(#linear-gradient-4);
      }

      .cls-4 {
        fill: #ffcc04;
      }

      .cls-5 {
        fill: url(#linear-gradient-3);
      }

      .cls-6 {
        fill: url(#linear-gradient-5);
      }

      .cls-7 {
        fill: #e81c3d;
      }

      .cls-8 {
        fill: url(#linear-gradient-6);
      }

      .cls-9 {
        fill: url(#linear-gradient);
      }
    </style>
    <linearGradient id="linear-gradient" x1="-16283.06" y1="53.43" x2="-16317.19" y2="53.43" gradientTransform="translate(-16263.9139) scale(-1 1)" gradientUnits="userSpaceOnUse">
      <stop offset="0" stop-color="#600f40"/>
      <stop offset=".25" stop-color="#9c1c26"/>
      <stop offset=".75" stop-color="#e46626"/>
      <stop offset="1" stop-color="#f68a25"/>
    </linearGradient>
    <linearGradient id="linear-gradient-2" x1="-16293.38" y1="59.91" x2="-16319.37" y2="59.91" xlink:href="#linear-gradient"/>
    <linearGradient id="linear-gradient-3" x1="-16308.34" y1="61.05" x2="-16322.23" y2="61.05" xlink:href="#linear-gradient"/>
    <linearGradient id="linear-gradient-4" x1="-16308.47" y1="45.44" x2="-16342.6" y2="45.44" gradientTransform="translate(-16263.9139) scale(-1 1)" gradientUnits="userSpaceOnUse">
      <stop offset=".01" stop-color="#f68a25"/>
      <stop offset=".25" stop-color="#e46626"/>
      <stop offset=".75" stop-color="#9c1c26"/>
      <stop offset="1" stop-color="#600f40"/>
    </linearGradient>
    <linearGradient id="linear-gradient-5" x1="-16306.29" y1="38.95" x2="-16332.28" y2="38.95" xlink:href="#linear-gradient-4"/>
    <linearGradient id="linear-gradient-6" x1="-16303.42" y1="37.82" x2="-16317.31" y2="37.82" xlink:href="#linear-gradient-4"/>
  </defs>
  <path class="cls-9" d="M53.27,51.03c-.75.53-.89,1.54-1.43,2.28-3.05,4.16-8.39,2.83-12.59,1.63-6.28-1.8-12.25-4.76-18.56-6.54-.41.03-1.32,6.09-1.55,6.95,6.41.36,12.63,2.22,19,2.85,6.49.64,13.57.7,15.12-7.18Z"/>
  <path class="cls-1" d="M54.7,49.35c-.43-.06-.23.54-.21.81.6,6.18-3.83,7.88-8.87,9.63-5.29,1.84-10.91,2.82-16.12,4.92-.37.54,2.22,4.8,2.29,5.77,4.68-2.73,9.75-4.77,14.48-7.4,5.24-2.92,11.33-6.67,8.43-13.73Z"/>
  <path class="cls-5" d="M49.45,74.56c1.82-4.96,4.9-9.39,6.97-14.24,1.57-3.66,3.31-8.38.09-11.7-.34-.35-1.45-1.3-1.8-1.07,4.26,4.07,1.43,8.32-1.24,12.21-1.12,1.63-9.03,11.3-9.04,12.06,0,.44,2.21,1.58,2.72,1.84.42.22,1.99,1.13,2.3.91Z"/>
  <path class="cls-3" d="M44.56,47.84c.75-.53.89-1.54,1.43-2.28,3.05-4.16,8.39-2.83,12.59-1.63,6.28,1.8,12.25,4.76,18.56,6.54.41-.03,1.32-6.09,1.55-6.95-6.41-.36-12.63-2.22-19-2.85-6.49-.64-13.57-.7-15.12,7.18Z"/>
  <path class="cls-6" d="M43.13,49.52c.43.06.23-.54.21-.81-.6-6.18,3.83-7.88,8.87-9.63,5.29-1.84,10.91-2.82,16.12-4.92.37-.54-2.22-4.8-2.29-5.77-4.68,2.73-9.75,4.77-14.48,7.4-5.24,2.92-11.33,6.67-8.43,13.73Z"/>
  <path class="cls-8" d="M48.38,24.31c-1.82,4.96-4.9,9.39-6.97,14.24-1.57,3.66-3.31,8.38-.09,11.7.34.35,1.45,1.3,1.8,1.07-4.26-4.07-1.43-8.32,1.24-12.21,1.12-1.63,9.03-11.3,9.04-12.06,0-.44-2.21-1.58-2.72-1.84-.42-.22-1.99-1.13-2.3-.91Z"/>
  <path class="cls-7" d="M48.91,91.47c-11.23,0-21.79-4.39-29.74-12.37-7.94-7.98-12.32-18.58-12.32-29.86s4.37-21.89,12.32-29.86c7.94-7.98,18.5-12.37,29.74-12.37s21.79,4.39,29.73,12.37c7.94,7.98,12.32,18.58,12.32,29.86s-4.37,21.89-12.32,29.86c-7.94,7.98-18.5,12.37-29.73,12.37ZM48.91,9.55c-21.8,0-39.53,17.81-39.53,39.7s17.73,39.7,39.53,39.7,39.53-17.81,39.53-39.7S70.71,9.55,48.91,9.55Z"/>
  <path class="cls-4" d="M48.91,94.01c-6.02,0-11.85-1.18-17.35-3.52-5.31-2.25-10.07-5.48-14.17-9.59-4.09-4.11-7.31-8.9-9.55-14.23-2.32-5.52-3.5-11.38-3.5-17.42h2.53c0,23.28,18.86,42.23,42.05,42.23s42.05-18.94,42.05-42.23h2.53c0,6.04-1.18,11.9-3.5,17.42-2.25,5.33-5.46,10.12-9.55,14.23-4.09,4.11-8.86,7.34-14.17,9.59-5.5,2.33-11.33,3.52-17.35,3.52Z"/>
  <path class="cls-2" d="M93.49,49.24h-.93c0-5.88-1.15-11.57-3.41-16.94-2.19-5.19-5.32-9.85-9.3-13.86-3.99-4-8.63-7.15-13.8-9.34-5.35-2.27-11.04-3.43-16.9-3.43s-11.54,1.15-16.9,3.43c-5.17,2.2-9.81,5.34-13.8,9.34-3.99,4-7.12,8.66-9.3,13.86-2.62,6.21-3.89,11.74-3.89,16.94h-.93c0-5.33,1.3-10.97,3.96-17.3,2.23-5.3,5.43-10.06,9.5-14.15,4.07-4.09,8.81-7.3,14.09-9.54,5.47-2.32,11.27-3.5,17.26-3.5s11.79,1.18,17.26,3.5c5.28,2.24,10.02,5.45,14.09,9.54,4.07,4.09,7.27,8.85,9.5,14.15,2.31,5.49,3.48,11.29,3.48,17.3Z"/>
</svg>