<?xml version="1.0" standalone="no"?>
<svg xmlns="http://www.w3.org/2000/svg" version="1.1" xmlns:xlink="http://www.w3.org/1999/xlink" width="512" height="512" x="0" y="0" viewBox="0 0 510 510" style="enable-background:new 0 0 512 512" xml:space="preserve" fill-rule="evenodd" class=""><g><path d="m326.977 124.322-8.173 319.741a9.59 9.59 0 0 1-9.582 9.221H50.695a9.589 9.589 0 0 1-9.582-9.221l-8.174-319.741zM126.514 286.914a54.995 54.995 0 0 0-1.488 12.741c0 24.954 16.674 46.043 39.478 52.725-7.485 9.744-19.253 16.03-32.478 16.03-3.572 0-7.037-.458-10.341-1.319a7.003 7.003 0 0 0-8.539 5.008 7.002 7.002 0 0 0 5.008 8.539 54.9 54.9 0 0 0 13.872 1.772c20.462 0 38.326-11.212 47.778-27.823l.154.001.155-.001c9.452 16.611 27.316 27.823 47.777 27.823 4.792 0 9.441-.616 13.873-1.772a7.003 7.003 0 0 0 5.008-8.539 7.004 7.004 0 0 0-8.539-5.008 40.964 40.964 0 0 1-10.342 1.319c-13.224 0-24.993-6.286-32.478-16.03 22.805-6.682 39.478-27.771 39.478-52.725 0-4.385-.515-8.651-1.487-12.741 19.988 2.695 35.42 19.841 35.42 40.563 0 4.121-.609 8.101-1.744 11.853a7.002 7.002 0 0 0 4.673 8.727 7.003 7.003 0 0 0 8.727-4.674 54.86 54.86 0 0 0 2.344-15.906c0-30.318-24.615-54.932-54.933-54.932h-.154c-.089-.157-.18-.314-.271-.47 12.233-21.025 9.348-48.457-8.654-66.459a54.93 54.93 0 0 0-11.062-8.557 7.002 7.002 0 0 0-9.579 2.497 7.002 7.002 0 0 0 2.497 9.579 41.002 41.002 0 0 1 8.244 6.38c11.996 11.996 14.984 29.611 8.963 44.406-9.863-9.414-23.219-15.198-37.916-15.198-14.69 0-28.041 5.779-37.901 15.185-6.015-14.792-3.025-32.4 8.967-44.393a40.885 40.885 0 0 1 9.615-7.148 7.004 7.004 0 0 0 2.866-9.476 7.005 7.005 0 0 0-9.476-2.866 54.839 54.839 0 0 0-12.904 9.591c-17.998 17.998-20.886 45.42-8.664 66.443-.095.161-.188.324-.281.486h-.154c-30.318 0-54.932 24.614-54.932 54.932 0 5.53.82 10.871 2.343 15.906a7.003 7.003 0 0 0 8.727 4.674 7.004 7.004 0 0 0 4.674-8.727 40.877 40.877 0 0 1-1.744-11.853c0-20.722 15.432-37.868 35.42-40.563zm14.349.589a40.683 40.683 0 0 1 11.069 4.207c.359.213.721.422 1.084.627 11.942 7.153 19.942 20.22 19.942 35.14 0 4.231-.643 8.313-1.837 12.153-18.349-4.045-32.095-20.417-32.095-39.975 0-4.23.643-8.312 1.837-12.152zm69.324-15.435a40.959 40.959 0 0 1-9.005 7.405c-.492.275-.98.557-1.464.847-12.35 6.803-27.48 6.75-39.787-.16a58.072 58.072 0 0 0-.909-.526 40.94 40.94 0 0 1-9.283-7.576c7.487-8.192 18.257-13.335 30.219-13.335 11.967 0 22.742 5.147 30.229 13.345zm-21.392 67.562a40.868 40.868 0 0 1-1.837-12.153c0-14.821 7.894-27.812 19.704-34.996.53-.295 1.057-.599 1.579-.913a40.677 40.677 0 0 1 10.812-4.065 40.866 40.866 0 0 1 1.837 12.152c0 19.558-13.745 35.93-32.095 39.975zM353.431 70.416v26.207c0 7.566-6.133 13.699-13.699 13.699H20.184c-7.566 0-13.699-6.133-13.699-13.699V70.416c0-7.566 6.133-13.7 13.699-13.7h319.548c7.566 0 13.699 6.134 13.699 13.7zM466.747 343.45l-8.586-26.148 10.692-3.511a10.685 10.685 0 0 0 6.818-13.483l-11.512-35.063a10.681 10.681 0 0 0-13.483-6.818l-10.692 3.511-8.585-26.148 16.72-5.49a29.135 29.135 0 0 1 36.772 18.594l17.17 52.294a29.135 29.135 0 0 1-18.594 36.772zM352.643 165.34a38.85 38.85 0 0 1 49.03 24.792l68.224 207.793a38.852 38.852 0 0 1-24.792 49.03l-15.679 5.148-92.462-281.615z" fill="#e81c3d" opacity="1" data-original="#000000" class=""/></g></svg>