<svg id="Layer_1" enable-background="new 0 0 500 500" viewBox="0 0 500 500" xmlns="http://www.w3.org/2000/svg" width="300" height="300" version="1.1" xmlns:xlink="http://www.w3.org/1999/xlink" xmlns:svgjs="http://svgjs.dev/svgjs"><g width="100%" height="100%" transform="matrix(1,0,0,1,0,0)"><path clip-rule="evenodd" d="m280.804 340.013v119.02c0 .373-.225.69-.576.814-.352.123-.725.017-.959-.273l-33.994-42.274c-.169-.211-.402-.322-.672-.322s-.503.112-.672.322l-33.994 42.274c-.234.291-.607.397-.959.273s-.576-.441-.576-.814v-119.022c0-.356.203-.66.532-.797 2.624-1.09 4.006-2.245 7.27-1.121 1.952.672 3.24 1.741 4.238 3.643 10.547 20.094 37.778 20.095 48.324 0 1.895-3.61 6.153-5.077 9.689-3.337.6.295 1.204.566 1.812.814.331.136.537.441.537.8zm-36.202-162.966c37.927 0 68.673 30.746 68.673 68.673s-30.746 68.673-68.673 68.673-68.673-30.746-68.673-68.673c.001-37.928 30.746-68.673 68.673-68.673zm33.65 39.884c-2.653-2.388-6.74-2.173-9.127.481l-33.563 37.268c-.167.186-.382.283-.632.285-.25.003-.466-.089-.638-.271l-15.004-15.931c-2.444-2.597-6.53-2.722-9.127-.278s-2.722 6.53-.278 9.127l20.46 21.723c2.591 2.753 6.975 2.698 9.502-.105l.004.004 38.883-43.176c2.388-2.652 2.173-6.739-.48-9.127zm98.363 21.088v-82.071c0-.369-.22-.684-.567-.81-47.718-17.41-89.869-39.392-130.937-69.341-.308-.225-.709-.225-1.017 0-41.066 29.948-83.221 51.932-130.936 69.341-.347.126-.567.441-.567.81v82.08c0 59.617 34.472 109.401 79.406 145.834l1.985 1.609c.265.215.607.255.915.109.307-.147.491-.438.491-.779v-45.52c0-.444-.331-.812-.772-.858l-1.09-.115c-15.108-1.592-26.003-15.335-24.175-30.412.628-5.174-2.896-10.026-8.012-11.028-20.956-4.105-29.245-29.618-14.705-45.257 3.555-3.823 3.554-9.807 0-13.631-14.541-15.639-6.252-41.149 14.704-45.256 5.116-1.002 8.64-5.853 8.013-11.028-1.207-9.951 2.915-19.412 11.025-25.304 8.119-5.899 18.37-6.894 27.472-2.666 4.733 2.198 10.428.349 12.965-4.212 10.386-18.672 37.198-18.672 47.585-.001 2.537 4.56 8.232 6.41 12.964 4.212 9.102-4.228 19.353-3.233 27.472 2.666 8.11 5.892 12.232 15.352 11.025 25.304-.627 5.174 2.897 10.026 8.012 11.028 20.957 4.106 29.244 29.616 14.705 45.256-3.555 3.824-3.554 9.808 0 13.631 14.54 15.639 6.252 41.151-14.705 45.256-5.115 1.002-8.639 5.853-8.012 11.028 1.828 15.078-9.067 28.82-24.176 30.413l-1.09.115c-.441.047-.772.415-.772.858v45.52c0 .341.184.632.491.779.308.147.65.106.915-.109l1.985-1.609c44.547-36.121 79.998-86.506 79.403-145.842zm-253.074 171.781c-74.462-54.692-103.47-152.765-69.674-239.34 1.299-3.323 5.046-4.965 8.369-3.666 3.323 1.298 4.965 5.046 3.666 8.369-21.019 53.844-16.401 114.768 12.14 164.666 12.669 22.149 29.613 41.522 49.698 56.99.313.241.734.242 1.049.003s.426-.646.276-1.012l-2.357-5.786c-1.34-3.309.256-7.079 3.565-8.419s7.079.256 8.419 3.565l11.435 28.074c1.594 3.925-.915 8.523-5.685 8.886-.008.001-.015.001-.023.002l-29.78 3.079c-3.547.363-6.717-2.218-7.079-5.765-.363-3.547 2.218-6.717 5.765-7.079l9.793-1.013c.362-.037.648-.281.744-.632.096-.352-.028-.707-.321-.922zm318.981-217.268c23.417 88.819-15.147 182.238-94.192 228.701-3.072 1.801-7.023.771-8.824-2.301s-.771-7.023 2.301-8.824c74.328-43.69 110.443-131.969 87.954-215.305-.099-.369-.411-.618-.793-.637-.383-.019-.719.203-.852.563l-3.23 8.744c-1.229 3.351-4.942 5.072-8.293 3.843s-5.072-4.942-3.843-8.293l10.503-28.436c1.478-4.015 6.445-5.699 10.216-2.733.007.005.013.01.02.015l24.034 17.804c2.862 2.122 3.462 6.164 1.34 9.026s-6.164 3.462-9.026 1.34l-5.967-4.42c-.299-.222-.687-.23-.996-.022-.312.209-.448.574-.352.935zm-327.798-90.95c-4.378.041-7.532-4.21-6.216-8.394l-.015-.005 9.151-28.899c1.075-3.407 4.709-5.298 8.116-4.222 3.407 1.075 5.298 4.709 4.222 8.116l-2.095 6.616c-.113.357.007.728.307.952.301.225.693.231 1.003.019 76.624-52.414 179.111-46.608 249.568 14.486 2.695 2.332 2.989 6.407.657 9.102s-6.407 2.989-9.102.657c-66.6-57.75-163.707-62.698-235.52-12.43-.311.217-.44.592-.331.956.109.365.427.607.807.616l9.819.225c3.561.07 6.39 3.013 6.321 6.574-.07 3.561-3.013 6.39-6.574 6.321l-30.089-.688c-.01-.002-.019-.002-.029-.002z" fill-rule="evenodd" fill="#e81c3d" fill-opacity="1" data-original-color="#000000ff" stroke="none" stroke-opacity="1"/></g></svg>