<svg id="Layer_1" viewBox="0 0 512 512" xmlns="http://www.w3.org/2000/svg" data-name="Layer 1" width="300" height="300" version="1.1" xmlns:xlink="http://www.w3.org/1999/xlink" xmlns:svgjs="http://svgjs.dev/svgjs"><g width="100%" height="100%" transform="matrix(1,0,0,1,0,0)"><path d="m114.849 161.337v18.567c0 5.528 4.479 10.006 10.006 10.006h13.975c2.977 12.189 7.767 23.641 14.117 34.072l-9.893 9.893c-3.883 3.883-3.883 10.261 0 14.145l26.277 26.277c3.883 3.884 10.233 3.884 14.145 0l9.893-9.921c1.446.907 2.92 1.758 4.394 2.58v-18.425l3.317-6.265c-25.88-17.603-42.888-47.282-42.888-80.929 0-54 43.795-97.795 97.824-97.795s97.795 43.795 97.795 97.795c0 33.817-17.178 63.638-43.285 81.212l3.175 5.981v18.709c1.673-.907 3.317-1.871 4.933-2.863l9.921 9.921c3.883 3.884 10.233 3.884 14.116 0l26.277-26.277c3.912-3.884 3.912-10.261 0-14.145l-9.893-9.893c6.35-10.431 11.168-21.883 14.117-34.072h14.003c5.5 0 9.978-4.479 9.978-10.006v-37.134c0-5.499-4.479-10.006-9.978-10.006h-14.003c-2.948-12.189-7.767-23.641-14.117-34.073l9.893-9.893c3.912-3.884 3.912-10.233 0-14.145l-26.277-26.249c-3.883-3.912-10.233-3.912-14.116 0l-9.921 9.893c-10.403-6.35-21.884-11.168-34.044-14.117v-14.003c0-5.499-4.507-10.006-10.006-10.006h-37.163c-5.499 0-9.978 4.507-9.978 10.006v13.975c-12.189 2.977-23.669 7.795-34.073 14.145l-9.893-9.893c-3.912-3.912-10.261-3.912-14.145 0l-26.277 26.249c-3.883 3.912-3.883 10.261 0 14.145l9.893 9.893c-6.35 10.431-11.14 21.884-14.117 34.073h-13.975c-5.528 0-10.006 4.507-10.006 10.006v18.567zm341.518 103.805c-.992-19.134-24.463-28.205-38.098-14.542l-54.227 54.227-10.772 2.891c-9.893 2.636-17.773 7.172-25.001 14.4l-22.252 22.28c-10.857 10.857-16.158 24.066-16.328 39.402l-.595 49.521h106.243l-.085-1.502c-.652-9.524 2.494-17.972 9.241-24.718l80.532-80.504c14.003-14.031 19.219-32.372 16.101-51.959l-15.761-99.014c-3.033-19.077-33.081-16.384-32.315 2.92l2.324 60.917c16.072 12.671 17.49 36.737 3.005 51.25l-46.233 46.233c-2.353 2.324-6.151 2.324-8.476 0-2.353-2.353-2.353-6.151 0-8.504l46.233-46.233c4.649-4.649 6.803-10.913 6.463-17.064zm-400.734 0c.992-19.134 24.463-28.205 38.098-14.542l54.255 54.227 10.772 2.891c9.864 2.636 17.745 7.172 24.973 14.4l22.28 22.28c10.829 10.857 16.129 24.066 16.299 39.402l.595 49.521h-106.243l.085-1.502c.681-9.524-2.494-17.972-9.241-24.718l-80.504-80.504c-14.032-14.031-19.247-32.372-16.129-51.959l15.761-99.014c3.062-19.077 33.081-16.384 32.343 2.92l-2.353 60.917c-16.073 12.671-17.49 36.737-3.005 51.25l46.233 46.233c2.353 2.324 6.151 2.324 8.504 0 2.324-2.353 2.324-6.151 0-8.504l-46.233-46.233c-4.677-4.649-6.832-10.913-6.491-17.064zm186.888 226.687h-146.154v-46.516h146.154zm26.958 0h146.154v-46.516h-146.154zm-46.658-308.409h65.82c3.062 0 5.556-2.494 5.556-5.528v-1.162h-76.933v1.162c0 3.033 2.495 5.528 5.556 5.528zm-20.75 125.065h107.319c3.062 0 5.556-2.495 5.556-5.556v-13.153c0-3.062-2.495-5.556-5.556-5.556h-107.319c-3.062 0-5.556 2.494-5.556 5.556v13.153c0 3.061 2.495 5.556 5.556 5.556zm7.682-36.255h91.956v-20.693h-91.956zm85.975-32.684c-6.492-14.201-11.226-28.97-13.947-44.107h-52.072c-2.75 15.137-7.483 29.906-13.975 44.107zm-84.955-74.835h89.915c3.062 0 5.556-2.494 5.556-5.556v-37.19h-22.138v16.639h-16.47v-16.639h-23.811v16.639h-16.469v-16.639h-22.138v37.19c0 3.062 2.494 5.556 5.556 5.556zm45.241-89.178c-47.396 0-85.805 38.41-85.805 85.805 0 28.857 14.23 54.368 36.057 69.931 5.102-11.735 8.986-24.01 11.367-36.624-7.143-2.211-12.359-8.901-12.359-16.753v-2.069c-7.002-2.296-12.047-8.901-12.047-16.668v-49.181h125.008v49.181c0 7.767-5.045 14.372-12.047 16.668v2.069c0 7.852-5.188 14.542-12.359 16.753 2.409 12.728 6.321 25.086 11.48 36.907 22.082-15.506 36.51-41.188 36.51-70.214 0-47.395-38.438-85.805-85.805-85.805z" fill-rule="evenodd" fill="#e81c3d" fill-opacity="1" data-original-color="#000000ff" stroke="none" stroke-opacity="1"/></g></svg>