<svg xmlns="http://www.w3.org/2000/svg" id="Layer_1" data-name="Layer 1" viewBox="0 0 64 64" width="300" height="300" version="1.1" xmlns:xlink="http://www.w3.org/1999/xlink" xmlns:svgjs="http://svgjs.dev/svgjs"><g width="100%" height="100%" transform="matrix(1,0,0,1,0,0)"><circle cx="32" cy="38.5" r="4.5" fill="#e81c3d" fill-opacity="1" data-original-color="#000000ff" stroke="none" stroke-opacity="1"/><path d="M10,52V62a1,1,0,0,0,1,1H21a1,1,0,0,0,1-1V52a4,4,0,0,0-4-4H14A4,4,0,0,0,10,52Z" fill="#e81c3d" fill-opacity="1" data-original-color="#000000ff" stroke="none" stroke-opacity="1"/><circle cx="16" cy="43.5" r="3.5" fill="#e81c3d" fill-opacity="1" data-original-color="#000000ff" stroke="none" stroke-opacity="1"/><path d="M42,52V62a1,1,0,0,0,1,1H53a1,1,0,0,0,1-1V52a4,4,0,0,0-4-4H46A4,4,0,0,0,42,52Z" fill="#e81c3d" fill-opacity="1" data-original-color="#000000ff" stroke="none" stroke-opacity="1"/><circle cx="48" cy="43.5" r="3.5" fill="#e81c3d" fill-opacity="1" data-original-color="#000000ff" stroke="none" stroke-opacity="1"/><path d="M24,49V62a1,1,0,0,0,1,1H39a1,1,0,0,0,1-1V49a5,5,0,0,0-5-5H32l2.5,8L32,55l-2.5-3L32,44H29A5,5,0,0,0,24,49Z" fill="#e81c3d" fill-opacity="1" data-original-color="#000000ff" stroke="none" stroke-opacity="1"/><path d="M26.91,16.21A9.71,9.71,0,0,0,27,15a9.71,9.71,0,0,0-.09-1.21l-1.26-.65a7.85,7.85,0,0,0-.93-2.23l.43-1.36a9.12,9.12,0,0,0-1.7-1.7l-1.36.43a7.85,7.85,0,0,0-2.23-.93l-.65-1.26A9.71,9.71,0,0,0,18,6a9.71,9.71,0,0,0-1.21.09l-.65,1.26a7.85,7.85,0,0,0-2.23.93l-1.36-.43a9.12,9.12,0,0,0-1.7,1.7l.43,1.36a7.85,7.85,0,0,0-.93,2.23l-1.26.65A9.71,9.71,0,0,0,9,15a9.71,9.71,0,0,0,.09,1.21l1.26.65a7.85,7.85,0,0,0,.93,2.23l-.43,1.36a9.12,9.12,0,0,0,1.7,1.7l1.36-.43a7.85,7.85,0,0,0,2.23.93l.65,1.26A9.71,9.71,0,0,0,18,24a9.71,9.71,0,0,0,1.21-.09l.65-1.26a7.85,7.85,0,0,0,2.23-.93l1.36.43a9.12,9.12,0,0,0,1.7-1.7l-.43-1.36a7.85,7.85,0,0,0,.93-2.23ZM18,18.6A3.6,3.6,0,1,1,21.6,15,3.6,3.6,0,0,1,18,18.6Z" fill="#e81c3d" fill-opacity="1" data-original-color="#000000ff" stroke="none" stroke-opacity="1"/><path d="M39,11H31a1,1,0,0,0,0,2h8a1,1,0,0,0,0-2Z" fill="#e81c3d" fill-opacity="1" data-original-color="#000000ff" stroke="none" stroke-opacity="1"/><path d="M39,17H36a1,1,0,0,0,0,2h3a1,1,0,0,0,0-2Z" fill="#e81c3d" fill-opacity="1" data-original-color="#000000ff" stroke="none" stroke-opacity="1"/><path d="M31,17a1,1,0,0,0,0,2h1a1,1,0,0,0,0-2Z" fill="#e81c3d" fill-opacity="1" data-original-color="#000000ff" stroke="none" stroke-opacity="1"/><path d="M57,24H53a1,1,0,0,0,0,2h4a1,1,0,0,0,0-2Z" fill="#e81c3d" fill-opacity="1" data-original-color="#000000ff" stroke="none" stroke-opacity="1"/><path d="M45,26h4a1,1,0,0,0,0-2H45a1,1,0,0,0,0,2Z" fill="#e81c3d" fill-opacity="1" data-original-color="#000000ff" stroke="none" stroke-opacity="1"/><path d="M45,32h7a1,1,0,0,0,0-2H45a1,1,0,0,0,0,2Z" fill="#e81c3d" fill-opacity="1" data-original-color="#000000ff" stroke="none" stroke-opacity="1"/><path d="M57,30H56a1,1,0,0,0,0,2h1a1,1,0,0,0,0-2Z" fill="#e81c3d" fill-opacity="1" data-original-color="#000000ff" stroke="none" stroke-opacity="1"/><path d="M56,1H8A7,7,0,0,0,1,8V42a7,7,0,0,0,7,7H9a1,1,0,0,0,0-2H8a5,5,0,0,1-3.8-1.79L6,43.4c.72-.73,1.39-1.36,2-1.94a58.39,58.39,0,0,1,5.66-4.52,57.24,57.24,0,0,1,10.64-5.83c1.2-.51,2.5-1,3.95-1.49l.1,0a58.78,58.78,0,0,0,13.13-6.31,58.3,58.3,0,0,0,10.39-8.52l3,2.78a1,1,0,0,0,.68.26,1,1,0,0,0,.38-.07,1,1,0,0,0,.62-.88L57,9.05a1,1,0,0,0-.32-.79A1,1,0,0,0,55.87,8l-7.74,1a1,1,0,0,0-.82.69,1,1,0,0,0,.27,1l2.87,2.63a56.61,56.61,0,0,1-10,8.19,57.13,57.13,0,0,1-12.68,6.09l-.1,0c-1.51.51-2.85,1-4.1,1.55a59.06,59.06,0,0,0-11,6A57.57,57.57,0,0,0,6.73,40c-.68.6-1.37,1.26-2.13,2L3.21,43.37A5.16,5.16,0,0,1,3,42V8A5,5,0,0,1,8,3H56a5,5,0,0,1,5,5V42a5,5,0,0,1-5,5H55a1,1,0,0,0,0,2h1a7,7,0,0,0,7-7V8A7,7,0,0,0,56,1Z" fill="#e81c3d" fill-opacity="1" data-original-color="#000000ff" stroke="none" stroke-opacity="1"/></g></svg>