<?xml version="1.0" standalone="no"?>
<svg xmlns="http://www.w3.org/2000/svg" version="1.1" xmlns:xlink="http://www.w3.org/1999/xlink" width="512" height="512" x="0" y="0" viewBox="0 0 512 512" style="enable-background:new 0 0 512 512" xml:space="preserve" class=""><g><path d="M510.852 70.263a14.984 14.984 0 0 0-13.857-9.258h-45.999V15.006a14.983 14.983 0 0 0-9.257-13.857c-5.61-2.344-12.056-1.025-16.348 3.252L365.392 65.4a14.988 14.988 0 0 0-4.395 10.605v53.788L230.394 260.398c-5.859 5.859-5.859 15.352 0 21.211 5.859 5.859 15.352 5.859 21.211 0l130.603-130.603h53.788c3.984 0 7.793-1.582 10.605-4.395l60.999-60a14.984 14.984 0 0 0 3.252-16.348z" fill="#e81c3d" opacity="1" data-original="#000000" class=""/><path d="M459.84 174.056c-7.094 4.462-15.266 6.949-23.844 6.949H394.63l-9.65 9.65c13.336 23.802 21.017 51.181 21.017 80.349 0 90.98-74.018 164.998-164.998 164.998S76.002 361.983 76.002 271.004 150.02 106.006 241 106.006c29.169 0 56.547 7.681 80.349 21.017l9.65-9.65V76.006c0-8.578 2.487-16.75 6.949-23.844C307.62 38.685 274.997 31.006 241 31.006 108.668 31.006.003 138.67.003 271.003S108.667 512 240.999 512s239.997-108.665 239.997-240.997c0-33.996-7.679-66.62-21.156-96.947z" fill="#e81c3d" opacity="1" data-original="#000000" class=""/><path d="m362.47 213.165-61.879 61.879c-2.117 31.216-27.839 55.958-59.591 55.958-33.137 0-59.999-26.863-59.999-59.999 0-31.755 24.743-57.474 55.958-59.591l61.879-61.879c-17.598-8.421-37.06-13.528-57.838-13.528-74.442 0-134.998 60.556-134.998 134.998S166.558 406.001 241 406.001s134.998-60.556 134.998-134.998c0-20.778-5.107-40.24-13.528-57.838z" fill="#e81c3d" opacity="1" data-original="#000000" class=""/></g></svg>