<?xml version="1.0" standalone="no"?>
<svg xmlns="http://www.w3.org/2000/svg" version="1.1" xmlns:xlink="http://www.w3.org/1999/xlink" width="512" height="512" x="0" y="0" viewBox="0 0 64 64" style="enable-background:new 0 0 512 512" xml:space="preserve" class=""><g><path d="M24.93 52.5h14.14a11.445 11.445 0 0 1 1.08-5.02H23.89a11.613 11.613 0 0 1 1.04 5.02zM32.87 12.1c-9.82-.69-18.788 7.834-18.57 17.68a17.65 17.65 0 0 0 6.52 13.72 10.729 10.729 0 0 1 1.89 1.98h18.62a11.608 11.608 0 0 1 1.96-2.07A17.703 17.703 0 0 0 32.87 12.1zM24.93 54.5A5.2 5.2 0 0 0 30.1 60h3.8a5.2 5.2 0 0 0 5.17-5.5zM32 10.1a1 1 0 0 0 1-1V5a1 1 0 0 0-2 0v4.1a1 1 0 0 0 1 1zM17.39 14.172a1 1 0 1 0 1.617-1.176l-2.41-3.316a1 1 0 1 0-1.617 1.175zM9.977 24.373l-3.899-1.267a1 1 0 0 0-.617 1.903c.029-.009 4.354 1.463 4.207 1.316a1.003 1.003 0 0 0 .309-1.952zM57.922 23.106l-3.898 1.267a1.003 1.003 0 0 0 .308 1.952c-.144.142 4.184-1.321 4.207-1.316a1 1 0 0 0-.617-1.903zM45.8 14.584a.998.998 0 0 0 .81-.412l2.41-3.317a1 1 0 1 0-1.618-1.175l-2.409 3.316a1.006 1.006 0 0 0 .808 1.588z" fill="#e81c3d" opacity="1" data-original="#000000"/></g></svg>