<?xml version="1.0" standalone="no"?>
<svg xmlns="http://www.w3.org/2000/svg" version="1.1" xmlns:xlink="http://www.w3.org/1999/xlink" width="512" height="512" x="0" y="0" viewBox="0 0 512 512" style="enable-background:new 0 0 512 512" xml:space="preserve" class=""><g><path d="M467 362h-17v-75c0-8.291-6.709-15-15-15s-15 6.709-15 15v16.701c-13.823 3.256-22.555 10.675-29.883 16.961-7.954 6.826-13.213 11.338-25.02 11.338-12.012 0-17.314-4.541-25.356-11.396-9.682-8.292-21.753-18.604-44.839-18.604-22.925 0-34.922 10.298-44.561 18.574C242.329 327.459 237.026 332 225 332s-17.329-4.541-25.342-11.426C190.02 312.298 178.022 302 155.098 302c-23.086 0-35.156 10.312-44.839 18.604C102.217 327.459 96.914 332 84.902 332c-11.807 0-17.065-4.512-25.02-11.338-7.328-6.286-16.06-13.705-29.883-16.961V287c0-8.291-6.709-15-15-15s-15 6.709-15 15v180c0 24.814 20.186 45 45 45h360c24.814 0 45-20.186 45-45v-75h17c8.276 0 15 6.724 15 15 0 8.291 6.709 15 15 15s15-6.709 15-15c.001-24.814-20.185-45-44.999-45zM497 452c-8.291 0-15 6.709-15 15v30c0 8.291 6.709 15 15 15s15-6.709 15-15v-30c0-8.291-6.709-15-15-15zM91 180h270c33.091 0 60-26.909 60-60s-26.909-60-60-60h-38.232C312.191 41.704 292.533 30 271 30c-13.784 0-26.792 4.79-37.148 13.052C221.825 17.622 195.927 0 166 0c-36.226 0-66.519 25.811-73.491 60H91c-33.091 0-60 26.909-60 60s26.909 60 60 60zM211 226v30c0 8.291 6.709 15 15 15s15-6.709 15-15v-30c0-8.291-6.709-15-15-15s-15 6.709-15 15zM271 226v30c0 8.291 6.709 15 15 15s15-6.709 15-15v-30c0-8.291-6.709-15-15-15s-15 6.709-15 15zM331 226v30c0 8.291 6.709 15 15 15s15-6.709 15-15v-30c0-8.291-6.709-15-15-15s-15 6.709-15 15zM151 226v30c0 8.291 6.709 15 15 15s15-6.709 15-15v-30c0-8.291-6.709-15-15-15s-15 6.709-15 15zM91 226v30c0 8.291 6.709 15 15 15s15-6.709 15-15v-30c0-8.291-6.709-15-15-15s-15 6.709-15 15z" fill="#e81c3d" opacity="1" data-original="#000000" class=""/></g></svg>