<?xml version="1.0" standalone="no"?>
<svg xmlns="http://www.w3.org/2000/svg" version="1.1" xmlns:xlink="http://www.w3.org/1999/xlink" width="512" height="512" x="0" y="0" viewBox="0 0 512 512" style="enable-background:new 0 0 512 512" xml:space="preserve"><g><path d="m180.256 231.449 46.675 55.631h-41.848l-46.675-55.631zm100.006 119.262-46.626-55.631h-41.849l46.675 55.631zM173.553 223.45l-46.675-55.62h-41.8l46.626 55.62zm158.964 127.261L285.89 295.08h-41.849l46.675 55.631zM190.711 231.449l46.627 55.631h41.848l-46.675-55.631zm175.202-65.348c1.733 0 3.418-.9 4.354-2.5l20.134-34.88c1.358-2.391.562-5.451-1.826-6.831-2.389-1.388-5.479-.56-6.836 1.831l-20.134 34.88c-1.982 3.402.586 7.5 4.308 7.5zm-67.987-18.231c2.762 0 4.963-2.24 4.963-5V102.6c0-6.621-9.973-6.551-9.973 0v40.27c0 2.76 2.247 5 5.01 5zm-72.389 15.73c1.403 2.417 4.554 3.2 6.836 1.829 2.388-1.379 3.23-4.439 1.826-6.83l-20.134-34.88c-3.263-5.698-11.938-.712-8.615 5zm.271 59.85-46.675-55.62h-41.8l46.626 55.62zm19.358 135.26 46.675 55.629h41.8l-46.626-55.629zm207.933 4.02-34.884-20.13c-2.388-1.39-5.431-.569-6.836 1.831-1.358 2.391-.562 5.44 1.826 6.83l34.883 20.131a5.013 5.013 0 0 0 6.836-1.831c1.406-2.39.562-5.452-1.825-6.831zm-37.366-146.841c.843 0 1.686-.219 2.481-.67l34.884-20.139c2.388-1.381 3.231-4.441 1.826-6.83-1.358-2.391-4.448-3.21-6.836-1.831l-34.883 20.141c-4.384 2.532-2.595 9.329 2.528 9.329zm-117.807-39.038c-27.675 0-54.214 11.296-73.436 31.194l-.625.647L354.16 364.053l.746-.503c28.345-19.093 45.064-50.45 45.064-84.639 0-56.27-45.771-102.06-102.044-102.06zm176.29 97.059h-40.268c-2.763 0-5.01 2.241-5.01 5.001s2.248 4.999 5.01 4.999h40.268c2.763 0 5.01-2.239 5.01-4.999a5.009 5.009 0 0 0-5.01-5.001zM74.623 167.83H32.774l46.675 55.62h41.8zm53.378 63.619H86.153l46.675 55.631h41.8zm53.332 63.631h-41.801l46.675 55.631h41.801zm116.087 63.63 46.675 55.629h41.8l-46.626-55.629zm-104.508 0 46.626 55.629h41.849l-46.675-55.629z" fill="#e81c3d" opacity="1" data-original="#000000"/></g></svg>