<svg id="Layer_1" viewBox="0 0 512 512" xmlns="http://www.w3.org/2000/svg" data-name="Layer 1" width="300" height="300" version="1.1" xmlns:xlink="http://www.w3.org/1999/xlink" xmlns:svgjs="http://svgjs.dev/svgjs"><g width="100%" height="100%" transform="matrix(1,0,0,1,0,0)"><path d="m170.272 406.376s.002-.004.003-.005c1.493-2.528 1.892-5.554 1.12-8.521-.828-3.188-2.929-5.965-5.764-7.622-5.657-3.305-12.967-1.403-16.297 4.235l-15.635 26.464c-1.592 2.694-2.029 5.865-1.233 8.929.796 3.063 2.723 5.62 5.425 7.198 5.768 3.369 13.377 1.582 16.622-3.903l15.756-26.771s.002-.003.003-.005z" fill="#e81c3d" fill-opacity="1" data-original-color="#000000ff" stroke="none" stroke-opacity="1"/><path d="m142.533 249.091-22.688-9.217c-.375-.153-.768-.225-1.156-.225-1.256 0-2.474.751-2.967 1.966l-52.694 129.705c-.646 1.589.151 3.478 1.741 4.123l22.688 9.217c1.041.424 1.961.166 2.417-.027.455-.192 1.281-.67 1.705-1.712l52.694-129.706c.646-1.589-.151-3.478-1.741-4.124z" fill="#e81c3d" fill-opacity="1" data-original-color="#000000ff" stroke="none" stroke-opacity="1"/><path d="m198.146 409.566c-.859-.505-3.546-1.919-6.702-1.919-3.002 0-6.428 1.279-9.109 5.835l-15.756 26.771s-.005.009-.008.014c-.003.006-.008.012-.011.018l-6.495 11.034c-2.339 3.975-2.542 7.726-.604 11.15 2.201 3.887 6.917 6.628 11.469 6.667h.095c2.779 0 6.649-1.032 9.499-5.873l4.478-7.606c.003-.006.007-.012.01-.019.002-.003.004-.005.006-.008l17.777-30.205c4.528-7.695-.792-13.589-4.648-15.86z" fill="#e81c3d" fill-opacity="1" data-original-color="#000000ff" stroke="none" stroke-opacity="1"/><path d="m235.714 444.41c1.591-2.696 2.028-5.871 1.23-8.937-.797-3.067-2.725-5.626-5.428-7.207-5.702-3.334-13.262-1.5-16.509 4.004-.015.025-.032.046-.047.071-.035.062-.066.123-.103.185s-17.787 30.222-17.787 30.222 0 .002-.002.002c-1.558 2.64-1.972 5.801-1.166 8.899.817 3.143 2.847 5.857 5.566 7.448 5.188 3.031 10.992 4.734 19.855-10.295.143-.241.3-.467.465-.684.244-.479.498-.953.773-1.42l13.077-22.149c.026-.046.047-.094.073-.14z" fill="#e81c3d" fill-opacity="1" data-original-color="#000000ff" stroke="none" stroke-opacity="1"/><path d="m396.115 241.615c-.646-1.589-2.535-2.387-4.123-1.741l-22.688 9.217c-1.591.646-2.389 2.535-1.742 4.124l52.694 129.705c.424 1.043 1.25 1.521 1.706 1.713.454.191 1.372.451 2.417.028l22.688-9.217c1.044-.424 1.521-1.251 1.714-1.706s.451-1.375.027-2.417l-52.693-129.705z" fill="#e81c3d" fill-opacity="1" data-original-color="#000000ff" stroke="none" stroke-opacity="1"/><path d="m305.808 285.225c-17.127-8.585-36.057-5.119-49.402 9.047-.146.156-.301.305-.462.447-19.775 17.462-38.891 31.421-56.925 41.577 7.312 9.87 21.133 17.209 52.157 2.043.056-.027.112-.054.169-.08 23.655-10.793 48.261-9.452 73.132 3.984.072.04.145.08.216.122l51.226 30.067 21.43-8.706-32.726-80.554c-18.114 7.677-35.808 13.574-58.814 2.052z" fill="#e81c3d" fill-opacity="1" data-original-color="#000000ff" stroke="none" stroke-opacity="1"/><path d="m272.749 448.985c-.796-3.064-2.724-5.623-5.427-7.202-1.883-1.101-3.949-1.624-5.991-1.624-4.089 0-8.079 2.098-10.3 5.858l-16.413 27.799c-1.591 2.695-2.028 5.867-1.232 8.932.797 3.064 2.724 5.621 5.426 7.2 5.655 3.305 12.962 1.405 16.292-4.234l16.413-27.798c1.591-2.695 2.029-5.867 1.232-8.931z" fill="#e81c3d" fill-opacity="1" data-original-color="#000000ff" stroke="none" stroke-opacity="1"/><path d="m291.135 470.016-7.8-4.582-12.044 20.398 7.485 4.394c2.711 1.59 5.899 2.025 8.974 1.226 3.076-.801 5.646-2.735 7.237-5.445 3.188-5.431 1.458-12.592-3.853-15.99z" fill="#e81c3d" fill-opacity="1" data-original-color="#000000ff" stroke="none" stroke-opacity="1"/><path d="m370.528 385.625-.494-.363c-.241-.167-.482-.333-.737-.483l-.011-.007-51.571-30.269c-20.737-11.17-41.084-12.363-60.477-3.545-14.622 7.136-26.662 10.021-36.562 10.022-20.062.001-31.362-11.838-37.688-24.133-1.764-3.429-.423-7.639 3-9.416 18.389-9.544 38.189-23.55 58.874-41.623-11.88-6.885-25.684-7.166-38.894-.553-22.946 11.5-40.633 5.588-58.751-2.088l-32.748 80.607 13.264 5.443c.11.045.219.093.326.143 5.666 2.669 10.337 6.812 13.868 12.21 8.161-7.593 20.675-9.329 30.768-3.432 6.027 3.521 10.493 9.422 12.251 16.189.021.079.036.158.056.236 6.841-1.907 14.228-.607 20.245 2.936 5.892 3.468 10.659 9.296 12.476 16.158 6.733-2.006 14.292-1.32 20.861 2.521 5.045 2.95 8.85 7.438 10.95 12.824 7.61-3.861 16.97-3.916 24.853.691 5.942 3.473 10.173 9.072 11.913 15.768.514 1.977.785 3.976.831 5.964l11.247 6.606s.002 0 .003.002c1.476.864 2.969 1.759 4.47 2.66 2.879 1.728 5.855 3.514 8.698 5.053 5.543 2.994 12.65 1.009 15.841-4.428 3.305-5.629 1.416-12.896-4.209-16.205l-.01-.006s-.005-.004-.008-.005l-57.882-33.974c-3.334-1.957-4.451-6.246-2.494-9.58 1.958-3.334 6.248-4.45 9.58-2.493l57.891 33.979c.006.003.012.007.018.011l7.95 4.667c2.712 1.591 5.899 2.025 8.975 1.226 3.075-.801 5.646-2.734 7.236-5.445 1.592-2.711 2.027-5.898 1.227-8.975-.801-3.076-2.734-5.646-5.444-7.237l-51.689-30.339c-3.334-1.957-4.451-6.246-2.494-9.58 1.958-3.334 6.247-4.451 9.58-2.493l51.689 30.339c2.711 1.59 5.899 2.025 8.974 1.226 3.076-.801 5.646-2.734 7.237-5.445 1.592-2.711 2.026-5.898 1.227-8.974-.672-2.584-2.152-4.802-4.213-6.392z" fill="#e81c3d" fill-opacity="1" data-original-color="#000000ff" stroke="none" stroke-opacity="1"/><path d="m308.884 168.991c-.67.217-1.023.514-1.354 1.135l-10.137 19.066c-2.923 5.497-8.542 8.688-14.425 8.688-1.864 0-3.752-.339-5.592-1.008l12.368 36.882 16.113-20.137 25.325 4.869-20.188-50.181-2.111.686z" fill="#e81c3d" fill-opacity="1" data-original-color="#000000ff" stroke="none" stroke-opacity="1"/><path d="m187.527 113.081c2.29 3.667 3.026 7.839 2.128 12.068l-4.49 21.123c-.256 1.203.408 2.352 1.578 2.732l20.536 6.672c4.112 1.335 7.359 4.06 9.389 7.878l10.138 19.065c.578 1.086 1.825 1.542 2.966 1.079l20.02-8.089c2.004-.81 4.066-1.215 6.127-1.215s4.124.405 6.128 1.215l20.021 8.089c1.142.462 2.388.006 2.965-1.08l10.137-19.065c2.029-3.818 5.276-6.542 9.39-7.878l20.535-6.672c1.17-.38 1.834-1.529 1.578-2.733l-4.49-21.121c-.898-4.23-.162-8.403 2.128-12.069l11.443-18.313c.652-1.043.422-2.35-.548-3.107l-17.017-13.294c-3.407-2.662-5.525-6.333-6.127-10.614l-3.005-21.382c-.172-1.218-1.161-2.076-2.417-2.028l-21.58.754c-4.31.164-8.302-1.299-11.516-4.191l-16.049-14.45c-.914-.824-2.239-.822-3.153 0l-16.048 14.449c-3.214 2.894-7.189 4.346-11.516 4.192l-21.58-.754c-1.265-.049-2.247.811-2.418 2.029l-3.005 21.382c-.602 4.281-2.72 7.952-6.127 10.613l-17.017 13.294c-.97.757-1.2 2.064-.548 3.107l11.443 18.312zm68.392-64.783c31.188 0 56.562 25.374 56.562 56.562s-25.373 56.561-56.562 56.561-56.562-25.373-56.562-56.561 25.373-56.562 56.562-56.562z" fill="#e81c3d" fill-opacity="1" data-original-color="#000000ff" stroke="none" stroke-opacity="1"/><path d="m255.919 147.42c23.469 0 42.562-19.092 42.562-42.561s-19.093-42.562-42.562-42.562-42.562 19.093-42.562 42.562 19.093 42.561 42.562 42.561zm-28.277-46.673c2.781-2.687 7.212-2.608 9.897.172l10.63 11.007 25.941-29.08c2.574-2.887 7.001-3.136 9.884-.564 2.885 2.574 3.137 6.999.563 9.883l-30.962 34.707c-1.296 1.453-3.139 2.3-5.085 2.339-.047 0-.093.001-.139.001-1.896 0-3.715-.77-5.035-2.137l-15.868-16.431c-2.686-2.781-2.608-7.212.173-9.898z" fill="#e81c3d" fill-opacity="1" data-original-color="#000000ff" stroke="none" stroke-opacity="1"/><path d="m214.444 189.192-10.138-19.065c-.33-.621-.684-.918-1.353-1.135l-2.111-.686-20.188 50.181 25.325-4.869 16.112 20.137 12.368-36.88c-7.648 2.777-16.168-.444-20.016-7.682z" fill="#e81c3d" fill-opacity="1" data-original-color="#000000ff" stroke="none" stroke-opacity="1"/></g></svg>