<svg id="Layer_1" enable-background="new 0 0 512 512" viewBox="0 0 512 512" xmlns="http://www.w3.org/2000/svg" width="300" height="300" version="1.1" xmlns:xlink="http://www.w3.org/1999/xlink" xmlns:svgjs="http://svgjs.dev/svgjs"><g width="100%" height="100%" transform="matrix(1,0,0,1,0,0)"><path clip-rule="evenodd" d="m437.74 270.96v-125.26c0-6.56-5.34-11.89-11.9-11.89h-20.56c-4.31 0-8.6 2.77-10.68 6.9-.18.36-.4.71-.64 1.02-1.68 2.14-3.65 4.85-5.73 7.73-9.9 13.66-22.22 30.65-35.84 33.38l-30.62 6.12c-11.52 2.31-15.83 8.59-14.97 13.45.86 4.83 6.95 9.21 18.27 7.44 2.84-.45 6.33-.86 10.38-1.34 13.17-1.56 37.69-4.46 43-10.95l22.34-27.31c2.1-2.56 5.88-2.94 8.44-.84 2.57 2.1 2.94 5.88.84 8.44l-16.69 20.4v50.94c0 3.31-2.68 6-6 6h-53.48c-13.91.48-25.21 13-25.21 27.96v58.59h22.95 13.03v-45.15c0-3.32 2.69-6 6-6h67.43c10.83 0 19.64-8.81 19.64-19.63zm-171.73-33.97h-69.74c-3.31 0-6-2.69-6-6s2.69-6 6-6h151.49c3.31 0 6 2.69 6 6s-2.68 6-6 6h-69.74v104.76h-12v-104.76zm-145.56 87.06h46.41v17.69h12v-23.68c0-3.31-2.69-6.01-6-6.01h-52.41c-21.37 0-38.75-17.38-38.75-38.74v-57.67c0-3.32-2.69-6-6-6s-6 2.68-6 6v57.67c0 17.33 8.74 32.65 22.04 41.81l-3.67 26.62h12.11l2.86-20.76c5.43 1.99 11.3 3.07 17.41 3.07zm341.87-50.74v-57.67c0-3.32 2.69-6 6-6s6 2.68 6 6v57.67c0 17.33-8.74 32.65-22.04 41.81l9.69 70.31c.45 3.29-1.84 6.31-5.13 6.77-.27.03-.55.05-.82.05-2.95 0-5.52-2.17-5.94-5.18l-4.1-29.74h-68.83v28.92c0 3.32-2.69 6-6 6s-6-2.68-6-6v-66.08c0-.36.04-.71.1-1.06-.06-.34-.1-.69-.1-1.06 0-3.31 2.69-6 6-6h52.41c21.38 0 38.76-17.38 38.76-38.74zm-217.45 80.43v35.38l9.7-8.26c2.24-1.91 5.54-1.91 7.78 0l9.7 8.26v-35.38zm-53.6 0h41.6v48.37c0 2.34 1.36 4.47 3.48 5.45s4.62.64 6.41-.88l15.7-13.37 15.7 13.37c1.11.94 2.49 1.43 3.89 1.43.85 0 1.71-.18 2.51-.55 2.12-.98 3.49-3.11 3.49-5.45v-48.37h41.6v131.26h-134.38zm-63.49 52.94-15.7-13.37-15.7 13.37c-1.11.94-2.49 1.43-3.89 1.43-.85 0-1.71-.18-2.51-.55-2.12-.98-3.49-3.11-3.49-5.45v-48.37h-41.59v131.26h134.37v-131.26h-41.6v48.37c0 2.34-1.36 4.47-3.49 5.45-2.11.98-4.61.64-6.4-.88zm-2.1-49.34v31.79l-9.7-8.26c-2.24-1.91-5.54-1.91-7.78 0l-9.7 8.26v-31.79zm7.87-250.38c14.86 0 26.95-12.09 26.95-26.95s-12.09-26.96-26.95-26.96-26.95 12.1-26.95 26.96c-.01 14.85 12.08 26.95 26.95 26.95zm58.09 75.89c-13.62-2.73-25.94-19.72-35.84-33.38-2.09-2.88-4.05-5.59-5.73-7.73-.25-.31-.47-.66-.65-1.02-2.07-4.13-6.36-6.9-10.68-6.9h-20.57c-6.56 0-11.89 5.33-11.89 11.89v125.26c0 10.82 8.8 19.63 19.62 19.63h67.43c3.31 0 6 2.68 6 6v45.15h35.99v-58.59c0-14.96-11.3-27.48-25.21-27.96h-53.48c-3.31 0-6-2.69-6-6v-50.94l-16.69-20.4c-2.1-2.56-1.72-6.34.84-8.44 2.57-2.1 6.34-1.72 8.44.84l22.34 27.31c5.31 6.49 29.83 9.39 43 10.95 4.05.48 7.54.89 10.38 1.34 11.32 1.78 17.4-2.61 18.27-7.44.87-4.86-3.44-11.14-14.97-13.45zm124.42-49.5c-24.29 24.29-63.81 24.29-88.1 0-11.76-11.77-18.25-27.41-18.25-44.05s6.48-32.28 18.25-44.04c24.29-24.28 63.81-24.28 88.1 0 11.76 11.77 18.25 27.41 18.25 44.05-.01 16.62-6.49 32.27-18.25 44.04zm-38.81-48.28c-.92-.41-1.84-.82-2.77-1.24-.96-.43-1.92-.85-2.88-1.27-8.82-3.88-12.68-6-12.68-9.99 0-.74.09-1.47.27-2.16 1.22-4.89 6.51-8.58 12.82-8.58s11.6 3.69 12.82 8.58c.17.69.27 1.42.27 2.16 0 3.31 2.69 6 6 6s6-2.69 6-6c0-.61-.03-1.21-.09-1.8-.01-.1-.01-.2-.03-.3-.06-.56-.14-1.12-.24-1.67-.02-.11-.04-.21-.06-.32-.11-.56-.24-1.12-.4-1.66-.01-.05-.03-.1-.05-.15-.16-.53-.34-1.05-.53-1.56-.03-.07-.05-.15-.08-.22-.21-.52-.44-1.03-.68-1.53-.05-.1-.1-.19-.14-.29-.25-.5-.52-.99-.82-1.46-.04-.07-.09-.14-.13-.2-.3-.47-.6-.93-.93-1.38-.03-.04-.05-.08-.08-.11-.34-.46-.7-.91-1.08-1.34-.07-.08-.13-.16-.2-.23-.37-.43-.76-.84-1.17-1.23-.07-.07-.14-.13-.21-.2-.86-.82-1.78-1.58-2.76-2.27-.08-.06-.15-.11-.23-.16-.48-.33-.96-.65-1.46-.94-.09-.06-.19-.11-.28-.17-.51-.29-1.04-.58-1.57-.84-.05-.03-.1-.05-.15-.07-.52-.25-1.06-.49-1.61-.71-.07-.02-.14-.06-.22-.09-.56-.21-1.12-.41-1.7-.59-.11-.04-.22-.07-.34-.1-.58-.18-1.16-.33-1.76-.47-.03-.01-.06-.02-.09-.02v-11.75c0-3.31-2.69-6-6-6s-6 2.69-6 6v11.74c-.03 0-.06.01-.09.02-.6.14-1.18.29-1.76.47-.11.03-.23.06-.34.1-.58.18-1.15.38-1.7.59-.08.03-.15.07-.22.1-.54.21-1.08.45-1.6.7-.05.02-.1.04-.15.07-.54.26-1.06.55-1.57.84-.09.06-.19.11-.28.17-.5.29-.99.61-1.46.94-.08.05-.15.1-.23.16-.98.69-1.9 1.45-2.76 2.27-.07.07-.14.13-.21.2-.41.39-.79.8-1.17 1.23-.07.07-.13.15-.2.23-.38.43-.74.88-1.08 1.34-.03.03-.05.07-.08.11-.33.45-.64.91-.93 1.38-.04.06-.09.13-.13.2-.29.47-.56.96-.82 1.46-.05.1-.1.19-.14.29-.25.5-.48 1.01-.68 1.53-.03.07-.05.15-.08.22-.2.51-.38 1.03-.53 1.56-.02.05-.03.1-.05.15-.16.54-.29 1.1-.4 1.66-.02.11-.04.21-.06.32-.1.55-.18 1.11-.24 1.67-.01.1-.02.2-.02.3-.05.59-.09 1.19-.09 1.8 0 3.82 1.08 6.92 2.82 9.5 3.84 5.67 10.95 8.79 17.02 11.47.92.4 1.84.81 2.77 1.23.96.43 1.92.86 2.88 1.28 8.82 3.88 12.68 6 12.68 9.99 0 .74-.09 1.46-.27 2.16-1.22 4.89-6.51 8.58-12.82 8.58s-11.6-3.69-12.82-8.58c-.17-.7-.27-1.42-.27-2.16 0-3.31-2.69-6-6-6s-6 2.69-6 6c0 .61.03 1.2.09 1.79.01.1.01.2.02.3.06.57.14 1.13.24 1.68.02.11.04.21.06.32.11.56.24 1.11.4 1.66.01.05.03.1.05.15.15.52.33 1.05.53 1.56.03.07.05.14.08.21.21.52.44 1.03.68 1.54.05.09.09.19.14.29.25.49.52.98.82 1.46.04.07.08.13.13.2.29.47.6.93.93 1.38.03.04.05.07.07.11.34.46.71.9 1.08 1.34.07.08.13.15.2.23.37.42.76.83 1.17 1.23.07.07.14.13.2.19.86.82 1.78 1.58 2.76 2.28.08.05.15.11.23.16.48.33.97.64 1.47.94.09.06.18.11.27.16.52.3 1.04.58 1.58.85.05.02.1.04.14.06.53.26 1.06.49 1.61.71.07.03.14.06.22.09.56.22 1.13.42 1.71.6.11.03.22.07.33.1.58.17 1.17.33 1.76.47.03 0 .06.01.09.02v11.73c0 3.31 2.69 6 6 6s6-2.69 6-6v-11.73c.03-.01.06-.02.09-.02.6-.14 1.18-.3 1.76-.47.11-.03.22-.07.33-.1.58-.18 1.15-.38 1.71-.6.07-.03.14-.06.22-.09.55-.22 1.09-.45 1.61-.71.05-.02.1-.04.14-.06.54-.27 1.07-.55 1.58-.85.09-.05.18-.1.27-.16.5-.3.99-.61 1.47-.94.08-.05.15-.11.23-.16.98-.7 1.91-1.46 2.76-2.28.07-.06.14-.12.21-.19.41-.4.8-.81 1.17-1.23.07-.08.13-.15.2-.23.38-.44.74-.88 1.08-1.34.03-.04.05-.07.07-.11.33-.45.64-.91.93-1.38.04-.07.08-.13.13-.2.29-.48.56-.97.82-1.47.05-.09.1-.19.14-.28.25-.51.48-1.02.68-1.54.03-.07.05-.14.08-.21.2-.51.37-1.04.53-1.56.01-.05.03-.1.05-.15.16-.55.29-1.1.4-1.66.02-.11.04-.21.06-.32.1-.55.18-1.11.24-1.68.01-.1.02-.2.03-.3.05-.59.09-1.18.09-1.79.02-12.24-10.98-17.08-19.82-20.96zm133.22 21.89c14.86 0 26.95-12.09 26.95-26.95s-12.09-26.96-26.95-26.96-26.95 12.1-26.95 26.96c0 14.85 12.09 26.95 26.95 26.95z" fill-rule="evenodd" fill="#e81c3d" fill-opacity="1" data-original-color="#000000ff" stroke="none" stroke-opacity="1"/></g></svg>