<?xml version="1.0" standalone="no"?>
<svg xmlns="http://www.w3.org/2000/svg" version="1.1" xmlns:xlink="http://www.w3.org/1999/xlink" width="512" height="512" x="0" y="0" viewBox="0 0 491.5 491.5" style="enable-background:new 0 0 512 512" xml:space="preserve" class=""><g><path d="M235.4 205.5c-11.4-20.6-29.7-47.6-37.8-66.1-9.6 21.7-33.1 55.1-43.1 76.2-16.9 35.3 12.5 66 43.1 67.5.8 0 1.5-.1 2.3-.2.6-9.6 3.2-19.1 7.6-28.3 4.1-8.7 9-17.2 13.8-25.5 4.5-7.9 9.3-15.7 14.1-23.6zm-46.9 7.2c-2.9 5-5.6 10.1-8.1 15.3-3.6 7.6-2.1 16 4.4 21.6 2 1.7 2.3 4.7.6 6.8-1.7 2-4.7 2.3-6.8.6-9.8-8.3-12.4-21.4-6.9-33 2.6-5.4 5.5-10.7 8.4-16 1.3-2.3 4.2-3.1 6.5-1.8 2.4 1.2 3.2 4.2 1.9 6.5z" fill="#e81c3d" opacity="1" data-original="#000000" class=""/><path d="M245.8 77.7c46.3 0 88.2 18.7 118.6 48.9L342 148.9l90.2 12.4-12.4-90.2-22.3 22.3C358.6 54.7 305 30.7 245.8 30.7c-118.8 0-215 96.3-215 215h46.9c0-92.8 75.2-168 168.1-168zM413.9 245.8c0 92.8-75.3 168.1-168.1 168.1-46.3 0-88.2-18.7-118.6-48.9l22.3-22.3-90.2-12.4 12.4 90.2L94 398.1c38.9 38.7 92.5 62.7 151.7 62.7 118.8 0 215-96.3 215-215z" fill="#e81c3d" opacity="1" data-original="#000000" class=""/><path d="M275.6 352.1c42.3-2 82.9-44.5 59.6-93.3-13.9-29.1-46.3-75.3-59.6-105.3-13.3 30-45.7 76.2-59.6 105.3-23.3 48.8 17.3 91.2 59.6 93.3zm27.9-97.2c2.3-1.3 5.2-.4 6.5 1.9 2 3.7 3.9 7.5 5.7 11.2 6.4 13.4 6.5 27.7-1.5 40.5-1.4 2.2-4.4 2.9-6.6 1.5s-2.9-4.4-1.5-6.6c6.3-10 6-20.8 1-31.3-1.8-3.7-3.6-7.2-5.5-10.8-1.3-2.3-.4-5.2 1.9-6.4z" fill="#e81c3d" opacity="1" data-original="#000000" class=""/></g></svg>