<svg xmlns="http://www.w3.org/2000/svg" id="Layer_1" data-name="Layer 1" viewBox="0 0 64 64" width="300" height="300" version="1.1" xmlns:xlink="http://www.w3.org/1999/xlink" xmlns:svgjs="http://svgjs.dev/svgjs"><g width="100%" height="100%" transform="matrix(1,0,0,1,0,0)"><path d="M23.126,45.2v1.881a3.416,3.416,0,0,1,2.226,3.227,3.347,3.347,0,0,1-.329,1.455l1.332,1.332a3.352,3.352,0,0,1,1.411-.308,3.414,3.414,0,0,1,3.243,2.274H32.9a3.417,3.417,0,0,1,3.227-2.227,3.344,3.344,0,0,1,1.455.329l1.332-1.332a3.352,3.352,0,0,1-.307-1.411,3.416,3.416,0,0,1,2.272-3.243V45.293a3.434,3.434,0,0,1-1.9-4.675l-1.333-1.333a3.364,3.364,0,0,1-1.411.307,3.418,3.418,0,0,1-2.945-1.666H30.8a3.448,3.448,0,0,1-2.922,1.619,3.36,3.36,0,0,1-1.455-.328l-1.332,1.332a3.344,3.344,0,0,1,.307,1.41A3.423,3.423,0,0,1,23.126,45.2ZM32,40.155a6.033,6.033,0,1,1-6.033,6.033A6.039,6.039,0,0,1,32,40.155Z" fill="#e81c3d" fill-opacity="1" data-original-color="#000000ff" stroke="none" stroke-opacity="1"/><path d="M18.538,37.926H16.1a26.049,26.049,0,0,0-6.842,8.258A25.723,25.723,0,0,0,20.975,57.493a15.738,15.738,0,0,1-4.782-11.309A15.57,15.57,0,0,1,18.538,37.926Z" fill="#e81c3d" fill-opacity="1" data-original-color="#000000ff" stroke="none" stroke-opacity="1"/><path d="M32,50.221a4.033,4.033,0,1,0-4.033-4.033A4.038,4.038,0,0,0,32,50.221Z" fill="#e81c3d" fill-opacity="1" data-original-color="#000000ff" stroke="none" stroke-opacity="1"/><path d="M27.995,4H36a1.1,1.1,0,0,1,1.1,1.1V20.158a1.1,1.1,0,0,1-1.1,1.1H27.995a1.1,1.1,0,0,1-1.1-1.1V5.1A1.1,1.1,0,0,1,27.995,4Z" fill="#e81c3d" fill-opacity="1" data-original-color="#000000ff" stroke="none" stroke-opacity="1"/><path d="M31.283,59.982c.139.005.268.009.387.011.359.007.66,0,.991-.009a13.807,13.807,0,0,0,13.146-13.8,13.592,13.592,0,0,0-2.764-8.258H39.114l1.845,1.845a1,1,0,0,1,.088,1.314,1.455,1.455,0,0,0-.29,1.535,1.423,1.423,0,0,0,1.208.889,1,1,0,0,1,.909,1v3.48a1,1,0,0,1-1,1,1.429,1.429,0,0,0-.931,2.347,1,1,0,0,1-.059,1.35l-2.462,2.462a1,1,0,0,1-1.3.095l-.086-.065a1.4,1.4,0,0,0-.911-.342,1.429,1.429,0,0,0-1.437,1.311,1,1,0,0,1-1,.916h-3.48a1,1,0,0,1-.982-.81c-.007-.035-.021-.119-.024-.154a1.429,1.429,0,0,0-1.436-1.31,1.408,1.408,0,0,0-.914.342,1,1,0,0,1-1.35-.06l-2.461-2.461a1,1,0,0,1-.095-1.3c.012-.016.052-.07.064-.084a1.413,1.413,0,0,0,.342-.913,1.431,1.431,0,0,0-1.31-1.438,1,1,0,0,1-.916-1v-3.48a1,1,0,0,1,1-1A1.428,1.428,0,0,0,23.4,41.959a1.413,1.413,0,0,0-.341-.914,1,1,0,0,1,.059-1.35l1.77-1.769H20.957a13.592,13.592,0,0,0-2.764,8.258A13.8,13.8,0,0,0,31.283,59.982Z" fill="#e81c3d" fill-opacity="1" data-original-color="#000000ff" stroke="none" stroke-opacity="1"/><path d="M54.747,46.184a26.049,26.049,0,0,0-6.842-8.258H45.462a15.57,15.57,0,0,1,2.345,8.258,15.771,15.771,0,0,1-4.74,11.28A25.683,25.683,0,0,0,54.747,46.184Z" fill="#e81c3d" fill-opacity="1" data-original-color="#000000ff" stroke="none" stroke-opacity="1"/><path d="M12.368,26.941h39.25A17.258,17.258,0,0,0,39.1,11.28v8.877a3.1,3.1,0,0,1-3.1,3.1H28a3.1,3.1,0,0,1-3.1-3.1V11.291A17.384,17.384,0,0,0,12.368,26.941Z" fill="#e81c3d" fill-opacity="1" data-original-color="#000000ff" stroke="none" stroke-opacity="1"/><path d="M5.65,32.439a3.491,3.491,0,0,0,3.487,3.487H30.121a.075.075,0,0,1,.015,0H54.863a3.487,3.487,0,1,0,0-6.973H9.137A3.49,3.49,0,0,0,5.65,32.439Z" fill="#e81c3d" fill-opacity="1" data-original-color="#000000ff" stroke="none" stroke-opacity="1"/></g></svg>